<svg width="116" height="28" viewBox="0 0 116 28" fill="none" xmlns="http://www.w3.org/2000/svg">
<path d="M0.55 21.0005H4.825V13.9005H10.175V10.5755H4.825V6.87549H11.975V3.45049H0.55V21.0005ZM13.1219 14.0005C13.1219 18.4005 15.8469 21.2005 19.2719 21.2005C21.3219 21.2005 22.7969 20.2755 23.5719 19.0005V21.0005H27.8469V2.50049H23.5719V8.97549C22.7219 7.70049 21.1219 6.85049 19.2719 6.85049C15.8469 6.85049 13.1219 9.60049 13.1219 14.0005ZM23.5719 14.0255C23.5719 16.2505 22.1469 17.4755 20.5219 17.4755C18.9219 17.4755 17.4719 16.2255 17.4719 14.0005C17.4719 11.7755 18.9219 10.5755 20.5219 10.5755C22.1469 10.5755 23.5719 11.8005 23.5719 14.0255ZM36.8396 10.2755C38.2646 10.2755 39.4646 11.1505 39.4646 12.6755H34.1146C34.3646 11.1255 35.4396 10.2755 36.8396 10.2755ZM43.5146 16.3755H38.9646C38.6146 17.1255 37.9396 17.7255 36.7396 17.7255C35.3646 17.7255 34.2396 16.8755 34.0896 15.0505H43.7646C43.8146 14.6255 43.8396 14.2005 43.8396 13.8005C43.8396 9.55049 40.9646 6.85049 36.8896 6.85049C32.7396 6.85049 29.8396 9.60049 29.8396 14.0255C29.8396 18.4505 32.7896 21.2005 36.8896 21.2005C40.3646 21.2005 42.8396 19.1005 43.5146 16.3755ZM45.8449 21.0005H50.1199V2.50049H45.8449V21.0005ZM52.968 21.0005H57.243V7.05049H52.968V21.0005ZM55.118 5.60049C56.618 5.60049 57.643 4.57549 57.643 3.30049C57.643 2.00049 56.618 0.975487 55.118 0.975487C53.593 0.975487 52.568 2.00049 52.568 3.30049C52.568 4.57549 53.593 5.60049 55.118 5.60049ZM58.766 7.05049L63.716 21.0005H68.991L73.941 7.05049H69.391L66.366 17.0005L63.341 7.05049H58.766ZM81.6404 10.2755C83.0654 10.2755 84.2654 11.1505 84.2654 12.6755H78.9154C79.1654 11.1255 80.2404 10.2755 81.6404 10.2755ZM88.3154 16.3755H83.7654C83.4154 17.1255 82.7404 17.7255 81.5404 17.7255C80.1654 17.7255 79.0404 16.8755 78.8904 15.0505H88.5654C88.6154 14.6255 88.6404 14.2005 88.6404 13.8005C88.6404 9.55049 85.7654 6.85049 81.6904 6.85049C77.5404 6.85049 74.6404 9.60049 74.6404 14.0255C74.6404 18.4505 77.5904 21.2005 81.6904 21.2005C85.1654 21.2005 87.6404 19.1005 88.3154 16.3755ZM94.9207 14.5255C94.9207 12.1255 96.0957 11.4255 98.1207 11.4255H99.2957V6.90049C97.4207 6.90049 95.8957 7.90049 94.9207 9.37549V7.05049H90.6457V21.0005H94.9207V14.5255ZM107.514 15.7755L104.289 7.05049H99.5141L105.189 20.5255L101.989 27.6255H106.589L115.339 7.05049H110.714L107.514 15.7755Z" fill="#F94A3D"/>
</svg>
